<svg xmlns="http://www.w3.org/2000/svg" viewBox="0 0 15 24" width="15" height="24">
	<style>
		tspan { white-space:pre }
		.shp0 { fill: #cccccc } 
	</style>
	<path id="ARROW / DOWN copy 2" class="shp0" d="M12.48 19.86L4.62 12L12.58 4.04L12.58 4.04C12.84 3.77 13 3.4 13 3C13 2.17 12.33 1.5 11.5 1.5C11.1 1.5 10.73 1.66 10.46 1.92L10.46 1.92L1.46 10.92L1.46 10.92C1.18 11.19 1 11.57 1 12C1 12 1 12 1 12C1 12 1 12 1 12.01C1 12.43 1.18 12.81 1.46 13.08L1.46 13.08L10.46 22.08L10.46 22.08C10.73 22.34 11.1 22.5 11.5 22.5C12.33 22.5 13 21.83 13 21C13 20.54 12.8 20.14 12.48 19.86Z" />
</svg>