<svg xmlns="http://www.w3.org/2000/svg" viewBox="0 0 15 24" width="15" height="24">
	<style>
		tspan { white-space:pre }
		.shp0 { fill: #cccccc } 
	</style>
	<path id="ARROW / DOWN copy" class="shp0" d="M2.52 19.86L10.38 12L2.42 4.04L2.42 4.04C2.16 3.77 2 3.4 2 3C2 2.17 2.67 1.5 3.5 1.5C3.9 1.5 4.27 1.66 4.54 1.92L4.54 1.92L13.54 10.92L13.54 10.92C13.82 11.19 14 11.57 14 12C14 12 14 12 14 12C14 12 14 12 14 12.01C14 12.43 13.82 12.81 13.54 13.08L13.54 13.08L4.54 22.08L4.54 22.08C4.27 22.34 3.9 22.5 3.5 22.5C2.67 22.5 2 21.83 2 21C2 20.54 2.2 20.14 2.52 19.86Z" />
</svg>