<svg xmlns="http://www.w3.org/2000/svg" viewBox="0 0 35 26" width="35" height="26">
	<style>
		tspan { white-space:pre }
		.shp0 { fill: #ffffff } 
	</style>
	<path id="USERS" class="shp0" d="M33.95 23.5C33.95 23.5 33.95 23.51 33.95 23.51C33.95 24.05 33.5 24.5 32.96 24.5L25.54 24.5C26.1 24.37 26.51 23.88 26.51 23.29C26.51 23.29 26.51 23.29 26.51 23.29L26.52 23.29C26.52 23.29 26.52 18.79 23.21 17.15C21.8 16.45 21.71 16.58 21.01 16.42L21.03 14.47C21.03 14.47 20.26 13.88 20.02 12.04C19.53 12.17 19.38 11.47 19.35 11.02C19.32 10.59 19.07 9.24 19.66 9.36C19.54 8.46 19.45 7.65 19.49 7.22C19.64 5.7 21.1 4.12 23.35 4.01C26 4.12 27.05 5.7 27.2 7.21C27.24 7.65 27.15 8.46 27.03 9.36C27.61 9.24 27.36 10.59 27.33 11.02C27.3 11.47 27.14 12.17 26.66 12.03C26.42 13.87 25.65 14.46 25.65 14.46L25.67 16.4C25.67 16.4 26.15 16.68 28.21 17.53C30.27 18.38 29.63 17.75 31.3 18.58C33.95 19.89 33.95 23.5 33.95 23.5L33.95 23.5ZM19.02 16.84C21.29 17.78 20.58 17.08 22.42 17.99C25.33 19.43 25.33 23.41 25.33 23.41L25.33 23.41C25.33 23.41 25.33 23.41 25.33 23.41C25.33 24.01 24.84 24.5 24.24 24.5L3.09 24.5C2.49 24.5 2 24.01 2 23.41C2 23.41 2 23.41 2 23.41L2 23.41C2 23.41 2 19.43 4.91 17.99C6.75 17.08 6.04 17.82 8.31 16.88C10.57 15.95 11.1 15.62 11.1 15.62L11.13 13.47C11.13 13.47 10.28 12.82 10.01 10.8C9.48 10.95 9.31 10.18 9.28 9.69C9.25 9.21 8.97 7.73 9.62 7.86C9.49 6.87 9.39 5.98 9.44 5.5C9.6 3.84 11.21 2.1 13.68 1.98C16.59 2.1 17.75 3.84 17.91 5.5C17.96 5.97 17.85 6.87 17.72 7.86C18.37 7.73 18.08 9.21 18.05 9.68C18.02 10.18 17.85 10.95 17.32 10.79C17.05 12.82 16.21 13.46 16.21 13.46L16.23 15.6C16.23 15.6 16.76 15.91 19.02 16.84Z" />
</svg>